<svg xmlns="http://www.w3.org/2000/svg" width="31.86" height="31.86" fill="#7e7e7e" xmlns:v="https://vecta.io/nano"><path d="M31.86 15.93a15.93 15.93 0 1 0-15.93 15.93 15.921 15.921 0 0 0 15.93-15.93zM15.93 1.867A14.065 14.065 0 0 1 27.585 23.8a15.924 15.924 0 0 0-23.31 0A14.065 14.065 0 0 1 15.93 1.867zM5.439 25.3a14.06 14.06 0 0 1 20.981 0 14.05 14.05 0 0 1-20.981 0zm10.491-8.436a5.61 5.61 0 0 0 5.6-5.6V9.396a5.6 5.6 0 0 0-11.2 0v1.867a5.61 5.61 0 0 0 5.6 5.601zm-3.733-7.468c.033-2.038 1.695-3.673 3.734-3.673s3.7 1.635 3.733 3.673v1.867c.022 1.348-.685 2.604-1.849 3.285a3.73 3.73 0 0 1-3.769 0c-1.164-.681-1.871-1.936-1.849-3.285zm0 0"/></svg>