<svg xmlns="http://www.w3.org/2000/svg" width="18.5" height="18.5" xmlns:v="https://vecta.io/nano"><path d="M16.115 1.445h-1.662V.578a.578.578 0 0 0-1.156 0v.867H5.2V.578a.578.578 0 0 0-1.156 0v.867H2.385A2.387 2.387 0 0 0 0 3.83v12.285A2.387 2.387 0 0 0 2.385 18.5h13.73a2.387 2.387 0 0 0 2.385-2.385V3.83a2.387 2.387 0 0 0-2.385-2.385zM2.385 2.6h1.662v.58a.578.578 0 0 0 1.156 0V2.6H13.3v.58a.578.578 0 0 0 1.156 0V2.6h1.662a1.23 1.23 0 0 1 1.226 1.23V5.2H1.156V3.83A1.23 1.23 0 0 1 2.385 2.6zm13.73 14.742H2.385a1.23 1.23 0 0 1-1.229-1.229V6.359h16.188v9.756a1.23 1.23 0 0 1-1.229 1.229z" fill="#fff"/></svg>