<svg xmlns="http://www.w3.org/2000/svg" width="31.537" height="23.259" xmlns:v="https://vecta.io/nano"><path d="M28.909 0H2.628C1.931 0 1.262.277.769.769S0 1.931 0 2.628v7.1c.001.29.236.525.526.526h27.463c.281-.012.503-.244.503-.525s-.222-.513-.503-.526H1.051V5.782h26.938c.193.008.375-.09.475-.256s.099-.373 0-.539-.281-.264-.475-.256H1.051v-2.1a1.58 1.58 0 0 1 1.577-1.577h26.281a1.58 1.58 0 0 1 1.577 1.577v18a1.58 1.58 0 0 1-1.577 1.577H2.628a1.58 1.58 0 0 1-1.577-1.578v-7.884c-.012-.281-.244-.503-.526-.503s-.513.222-.525.503v7.884c0 .697.277 1.366.769 1.859s1.161.77 1.859.769h26.281c.697 0 1.366-.277 1.859-.769s.77-1.161.769-1.859v-18c.001-.697-.276-1.367-.769-1.86S29.606 0 28.909 0zM4.8 15.177h4.4c.193.008.375-.09.475-.256s.099-.373 0-.539-.281-.264-.475-.256H4.8c-.193-.008-.375.09-.475.256s-.099.373 0 .539.281.264.475.256zm0 3.285h4.4c.193.008.375-.09.475-.256s.099-.373 0-.539-.281-.264-.475-.256H4.8c-.193-.008-.375.09-.475.256s-.099.373 0 .539.281.264.475.256z" fill="#707070"/></svg>