<svg xmlns="http://www.w3.org/2000/svg" width="36.043" height="29.823" fill="#707070" xmlns:v="https://vecta.io/nano"><path d="M5.443 14.912c-.002 3.622 2.063 6.927 5.318 8.513s7.131 1.176 9.982-1.057a9.47 9.47 0 0 0 13.4-13.148.72.72 0 0 0-.996-.124.72.72 0 0 0-.157.992c2.392 3.182 2.09 7.636-.709 10.466a8.03 8.03 0 0 1-10.458.825 9.45 9.45 0 0 0 0-12.933 8.03 8.03 0 0 1 8.881-.417.72.72 0 0 0 .975-.256.72.72 0 0 0-.231-.981 9.47 9.47 0 0 0-10.7.664c-2.851-2.233-6.726-2.644-9.982-1.057s-5.32 4.892-5.318 8.513zm9.469-8.026a8.03 8.03 0 0 1 8.026 8.026 8.03 8.03 0 0 1-8.026 8.026 8.03 8.03 0 0 1-8.026-8.026c.005-4.431 3.595-8.021 8.026-8.026zm.721-3.832V.721a.72.72 0 0 0-1.09-.648.72.72 0 0 0-.353.648v2.333a.72.72 0 0 0 .722.695.72.72 0 0 0 .721-.695zM8.358 5.003a.72.72 0 0 0 1.263.01.72.72 0 0 0-.013-.732l-1.166-2.02a.72.72 0 0 0-1.263-.01.72.72 0 0 0 .013.732zM5.003 8.358l-2.02-1.166a.72.72 0 0 0-.97.273.72.72 0 0 0 .248.977l2.02 1.166a.72.72 0 0 0 1.099-.622.72.72 0 0 0-.377-.628zm-1.227 6.554a.72.72 0 0 0-.722-.722H.722a.72.72 0 0 0-.695.721.72.72 0 0 0 .695.721h2.332a.72.72 0 0 0 .722-.721zm-1.153 7.816a.72.72 0 0 0 .36-.1l2.02-1.166a.72.72 0 0 0 .248-.977.72.72 0 0 0-.97-.273l-2.02 1.166a.72.72 0 0 0 .361 1.347zm5.735 2.091l-1.166 2.02a.72.72 0 0 0 .622 1.099.72.72 0 0 0 .628-.377l1.166-2.02a.72.72 0 0 0-.622-1.099.72.72 0 0 0-.628.377zm5.832 1.951v2.333a.72.72 0 0 0 .722.695.72.72 0 0 0 .721-.695V26.77a.72.72 0 0 0-1.09-.648.72.72 0 0 0-.353.648z"/></svg>