<svg xmlns="http://www.w3.org/2000/svg" width="34.23" height="34.229" fill="#707070" xmlns:v="https://vecta.io/nano"><path d="M34.23 23.165a11.09 11.09 0 0 0-8.1-10.662 13.07 13.07 0 1 0-24.315 7.21L.048 26.092l6.379-1.764a13.021 13.021 0 0 0 6.076 1.8 11.068 11.068 0 0 0 16.292 6.565l5.386 1.49-1.49-5.386a11.025 11.025 0 0 0 1.538-5.63zM6.743 22.159l-3.818 1.056L3.981 19.4l-.241-.38a11.061 11.061 0 1 1 3.38 3.38zM31.3 31.3l-2.833-.784-.378.246a9.062 9.062 0 0 1-13.516-4.715 13.1 13.1 0 0 0 11.48-11.47 9.062 9.062 0 0 1 4.714 13.516l-.246.378zM12.067 18.118h2.006v2.006h-2.006zm0 0"/><path d="M15.076 10.028c.002.564-.235 1.102-.653 1.48l-2.356 2.156v2.453h2.006v-1.569l1.7-1.56a4.01 4.01 0 0 0-3.687-6.849 4.01 4.01 0 0 0-3.031 3.889h2.006c.024-1.09.915-1.961 2.005-1.961s1.981.871 2.005 1.961zm0 0"/></svg>