<svg xmlns="http://www.w3.org/2000/svg" width="33.094" height="32.668" xmlns:v="https://vecta.io/nano"><path d="M31.386 14.294h0L18.588 1.497c-.541-.542-1.276-.846-2.042-.846s-1.501.304-2.042.846L1.715 14.285l-.013.013c-.807.81-1.06 2.021-.643 3.087s1.422 1.785 2.565 1.833q.044 0 .089 0h.51v9.416c.002 1.866 1.514 3.377 3.38 3.379h5.006a.92.92 0 0 0 .919-.919v-7.377c.001-.851.691-1.541 1.542-1.542h2.953c.851.002 1.54.691 1.541 1.542v7.382a.92.92 0 0 0 .919.919h5.006c1.866-.002 3.378-1.513 3.38-3.379v-9.417h.473a2.89 2.89 0 0 0 2.044-4.928zm0 0" fill="none" stroke="#650606" stroke-width="1.3"/></svg>