<svg xmlns="http://www.w3.org/2000/svg" width="32.196" height="31.476" fill="#707070" xmlns:v="https://vecta.io/nano"><path d="M22.552 7.002V1.573A1.58 1.58 0 0 0 20.979 0H1.573A1.58 1.58 0 0 0 0 1.573v22.238a1.6 1.6 0 0 0 .839 1.39L12.8 31.39c.246.126.54.114.776-.03a.79.79 0 0 0 .378-.678V24.65h7.028a1.58 1.58 0 0 0 1.573-1.573v-8.6h-3.15v6.241c.004.21-.078.412-.226.561a.77.77 0 0 1-.561.226h-4.641V8.156a1.6 1.6 0 0 0-.839-1.39L6.084 3.147h12.534c.21-.004.412.078.561.226a.77.77 0 0 1 .226.561v3.092h3.147zm4.038-2.57l5.114 5.114a1.57 1.57 0 0 1 0 2.281L26.59 16.94a1.6 1.6 0 0 1-2.308.026 1.67 1.67 0 0 1 .053-2.308l2.307-2.281h-8.941a1.55 1.55 0 0 1-1.18-.524 1.78 1.78 0 0 1 .393-2.7 1.68 1.68 0 0 1 .787-.21h8.942l-2.307-2.281a1.59 1.59 0 0 1-.461-1.562c.145-.566.59-1.006 1.158-1.145a1.59 1.59 0 0 1 1.557.477z"/></svg>