<svg xmlns="http://www.w3.org/2000/svg" xmlns:xlink="http://www.w3.org/1999/xlink" width="29.85" height="22.737" xmlns:v="https://vecta.io/nano"><g fill="#707070"><path d="M27.226 0H9.62C8.191.028 7.047 1.194 7.047 2.624S8.191 5.219 9.62 5.247h17.606c.949.019 1.835-.477 2.315-1.297s.48-1.834 0-2.654S28.175-.019 27.226 0z"/><use xlink:href="#B"/><use xlink:href="#B" y="8.745"/><path d="M2.624 0C1.175 0 0 1.175 0 2.624s1.175 2.624 2.624 2.624 2.624-1.175 2.624-2.624S4.073.001 2.624 0zm0 8.745c-1.061 0-2.018.639-2.424 1.62s-.182 2.109.569 2.86 1.879.975 2.86.569 1.62-1.363 1.62-2.424a2.63 2.63 0 0 0-2.625-2.625zm0 8.745C1.175 17.49 0 18.665 0 20.114s1.175 2.624 2.624 2.624 2.624-1.175 2.624-2.624-1.175-2.623-2.624-2.624z"/></g><defs ><path id="B" d="M27.226 8.745H9.62c-1.429.028-2.573 1.194-2.573 2.624s1.144 2.596 2.573 2.624h17.606c.949.019 1.835-.477 2.315-1.297s.48-1.834 0-2.654-1.366-1.315-2.315-1.297z"/></defs></svg>