<svg xmlns="http://www.w3.org/2000/svg" width="37.002" height="38.611" xmlns:v="https://vecta.io/nano"><g fill="#828282"><path d="M22.523 32.175c0 3.554-2.881 6.435-6.435 6.435s-6.435-2.881-6.435-6.435 2.881-6.435 6.435-6.435c1.707 0 3.343.678 4.55 1.885s1.885 2.844 1.885 4.55zm0 0"/><path d="M27.362 19.179c-3.484-.491-6.537-2.587-8.249-5.662s-1.883-6.774-.463-9.994c-3.347-.797-6.875-.015-9.572 2.122s-4.264 5.393-4.252 8.834v4.485c.001 3.185-1.405 6.207-3.842 8.258-.896.766-1.219 2.009-.81 3.115s1.463 1.84 2.641 1.839H29.36c1.183.001 2.24-.738 2.646-1.849s.074-2.357-.831-3.119a10.77 10.77 0 0 1-3.813-8.029zm0 0"/></g><path d="M37.002 8.044c0 4.443-3.601 8.044-8.044 8.044s-8.044-3.601-8.044-8.044S24.515 0 28.958 0c2.133 0 4.179.847 5.688 2.356s2.356 3.555 2.356 5.688zm0 0" fill="#6b0606"/></svg>