<svg xmlns="http://www.w3.org/2000/svg" width="152" height="149" fill="#0e0e0e" xmlns:v="https://vecta.io/nano"><path d="M125.435 78.808a2.21 2.21 0 0 0-2.212 2.212 2.81 2.81 0 0 1-2.808 2.808 2.81 2.81 0 0 1-2.808-2.808 2.21 2.21 0 1 0-4.424 0c0 3.996 3.239 7.234 7.235 7.234s7.235-3.239 7.235-7.234a2.21 2.21 0 0 0-2.217-2.212zm20.764.36l-6.225-1.99a2.6 2.6 0 0 1-1.681-1.7c-1.315-4.176-3.304-8.109-5.888-11.643a42.71 42.71 0 0 0-3.93-4.618 54.87 54.87 0 0 0 1.352-12.535c-.092-5.634-1.219-8.941-3.445-10.109-1.2-.628-4.845-2.535-24.578 6.5-.462.213-.9.474-1.307.78a86.76 86.76 0 0 0-4.059-.984l-.5-.1a30.14 30.14 0 0 0 2.706-11.2c.068-1.226-.871-2.274-2.097-2.342a2.22 2.22 0 0 0-2.341 2.097c-.466 10.362-7.105 19.432-16.842 23.008a64.15 64.15 0 0 0-17.808 0 25.76 25.76 0 1 1 31.93-35.763c.558 1.075 1.877 1.501 2.959.957s1.525-1.858.994-2.947a30.2 30.2 0 1 0-42.976 39.217h0q-2.064.536-4.092 1.21c-1.128.405-1.728 1.636-1.353 2.775a2.21 2.21 0 0 0 2.738 1.425 59.37 59.37 0 0 1 37.408 0c1.148.345 2.362-.287 2.738-1.425s-.225-2.369-1.353-2.775q-2.023-.679-4.092-1.21h0a30.17 30.17 0 0 0 9.181-8.978l1.81.374q1.191.259 2.369.554c-.023.1-.051.194-.069.291-1.095 4.429-1.024 9.065.208 13.458 1.012 3.311 3.07 6.205 5.865 8.248a18.61 18.61 0 0 0 10.89 3.454 14.6 14.6 0 0 0 7.057-1.63 13.47 13.47 0 0 0 5.2-7.389q.956 1.118 1.81 2.309a35.72 35.72 0 0 1 5.237 10.363c.683 2.178 2.381 3.89 4.554 4.59l6.225 2c1.628.518 2.733 2.032 2.729 3.741v10.271c.004 1.709-1.101 3.223-2.729 3.741l-10.031 3.233c-1.617.524-2.98 1.633-3.824 3.108-4.402 7.238-10.796 13.055-18.417 16.755a3.47 3.47 0 0 0-1.82 2.443l-3.233 17.013c-.089.468-.498.807-.974.808H96.119c-.476-.001-.885-.34-.974-.808l-1.783-9.44a3.48 3.48 0 0 0-3.953-2.794 92.48 92.48 0 0 1-13.781 1.025c-3.395.005-6.787-.187-10.16-.573-1.816-.205-3.484 1.02-3.833 2.813l-1.69 8.932c-.089.468-.498.807-.974.808H48.542a1 1 0 0 1-.979-.817l-3.094-16.067a3.47 3.47 0 0 0-1.783-2.415A39.07 39.07 0 0 1 21.11 88.811a42.53 42.53 0 0 1 5.348-21.609 38.6 38.6 0 0 1 14.376-14.039c1.057-.612 1.418-1.966.806-3.023s-1.966-1.418-3.023-.806a42.11 42.11 0 0 0-21.368 31.455h0l-.628-.055c.035-1.512-.242-3.015-.813-4.415a9.06 9.06 0 0 0-6.715-5.865c-2.246-.277-4.461.709-5.759 2.563a5.83 5.83 0 0 0-1.108 6.355c1.113 2.31 3.973 3.92 8.733 4.941q-.194.3-.429.591c-1.953 2.633-4.992 4.242-8.267 4.378a2.31 2.31 0 0 0-2.264 2.3h0a2.31 2.31 0 0 0 2.221 2.309h.5a14.37 14.37 0 0 0 11.264-6.235 12.65 12.65 0 0 0 1.615-2.604l1.2.125h0c-.074 1.2-.115 2.415-.115 3.653a45.59 45.59 0 0 0 6.526 24.412 44.73 44.73 0 0 0 17 15.7l3.006 15.623a5.42 5.42 0 0 0 5.325 4.41h10.448a5.42 5.42 0 0 0 5.325-4.41l1.529-8.077c3.251.341 6.517.51 9.786.508 4.534.009 9.063-.3 13.554-.924l1.612 8.516a5.42 5.42 0 0 0 5.325 4.41h10.446a5.42 5.42 0 0 0 5.325-4.41l3.127-16.566c8.199-4.081 15.067-10.411 19.8-18.251a2.42 2.42 0 0 1 1.344-1.108l10.037-3.231c3.465-1.099 5.814-4.322 5.8-7.957V87.126c.014-3.635-2.335-6.858-5.8-7.957zm-21.128-26.291c-.85 7.283-3.136 13.508-5.431 14.811-4.354 1.812-9.337 1.228-13.153-1.542-4.526-3.311-6.036-9.269-4.36-17.221h0a2.67 2.67 0 0 1 1.519-1.847 64.28 64.28 0 0 1 19.831-6.729 2.31 2.31 0 0 1 .8.106c1.424 3.984 1.699 8.289.794 12.422zM6.207 77.441c-.231-.462.309-1.3.656-1.755a1.76 1.76 0 0 1 1.422-.864c.074-.005.148-.005.222 0a4.82 4.82 0 0 1 3.2 3.14 6.74 6.74 0 0 1 .462 2.087c-3.07-.627-5.445-1.546-5.962-2.608zm64.424-49.798v-7.917c2.729.194 3.745 1.441 4.678 1.441 1.168 0 1.718-1.482 1.718-2.221 0-1.912-3.745-2.729-6.4-2.808v-1.052c0-.462-.587-.9-1.168-.9a1.03 1.03 0 0 0-1.131.9v1.14a7.24 7.24 0 0 0-7.389 7.255c0 4.992 3.9 6.4 7.389 7.643v9.167c-3.976-.314-5.029-3.043-6.318-3.043-.974 0-1.792 1.288-1.792 2.221 0 1.912 3.274 4.526 8.11 4.618h0v1.21a1.03 1.03 0 0 0 1.131.9c.586 0 1.168-.429 1.168-.9v-1.361c2.01-.117 3.89-1.031 5.223-2.54s2.009-3.487 1.877-5.496c.003-5.293-3.706-7.006-7.096-8.257zm-2.069-.739c-2.069-.78-3.745-1.6-3.745-3.819 0-2.027 1.561-3 3.745-3.274zm1.847 13.3v-8.23a4.56 4.56 0 0 1 3.431 4.369 3.7 3.7 0 0 1-3.445 3.861z"/></svg>