<svg xmlns="http://www.w3.org/2000/svg" width="33.295" height="32.638" fill="#707070" xmlns:v="https://vecta.io/nano"><path d="M27.476 17.263c-.129 0-.252.051-.343.142s-.142.214-.142.343c0 .34-.275.615-.615.615s-.615-.275-.615-.615c.008-.178-.082-.347-.236-.438s-.344-.092-.498 0-.244.26-.236.438c-.014.576.284 1.114.781 1.406s1.112.292 1.608 0 .795-.83.781-1.406c0-.129-.051-.252-.142-.343s-.215-.142-.344-.142zm4.548.079l-1.364-.436a.57.57 0 0 1-.368-.373c-.289-.915-.726-1.777-1.293-2.551a9.43 9.43 0 0 0-.861-1.012 12.02 12.02 0 0 0 .3-2.744c-.02-1.234-.267-1.958-.755-2.214-.262-.138-1.061-.555-5.384 1.423a1.57 1.57 0 0 0-.286.171l-.889-.215-.109-.022a6.6 6.6 0 0 0 .593-2.454c.006-.263-.197-.483-.46-.498s-.489.182-.512.444a5.64 5.64 0 0 1-3.689 5.041 14.05 14.05 0 0 0-3.9 0c-2.373-.876-3.872-3.224-3.67-5.746a5.64 5.64 0 0 1 4.54-5.086c2.482-.486 4.985.739 6.123 2.997.075.16.231.267.407.279s.345-.073.441-.222a.48.48 0 0 0 .018-.493C19.645 1.136 16.95-.297 14.175.053s-5.03 2.408-5.632 5.139.579 5.546 2.95 7.03h0q-.452.117-.9.265c-.236.096-.358.358-.279.6s.332.382.579.32a13 13 0 0 1 8.194 0c.247.062.5-.078.579-.32s-.043-.504-.279-.6q-.443-.149-.9-.265h0a6.61 6.61 0 0 0 2.011-1.967l.4.082q.261.057.519.121l-.015.064a5.78 5.78 0 0 0 .046 2.948 3.51 3.51 0 0 0 1.294 1.811c.696.496 1.53.761 2.385.757a3.2 3.2 0 0 0 1.546-.357 2.95 2.95 0 0 0 1.139-1.619q.209.245.4.506c.504.689.891 1.456 1.147 2.27a1.54 1.54 0 0 0 1 1.006l1.364.437a.86.86 0 0 1 .6.819v2.251a.86.86 0 0 1-.6.819l-2.2.708a1.5 1.5 0 0 0-.838.681 9.66 9.66 0 0 1-4.034 3.67.76.76 0 0 0-.4.535l-.708 3.727a.22.22 0 0 1-.213.177h-2.276c-.104 0-.194-.074-.213-.177l-.39-2.068a.76.76 0 0 0-.866-.612 20.33 20.33 0 0 1-3.019.225 19.32 19.32 0 0 1-2.226-.125.77.77 0 0 0-.84.616l-.37 1.956c-.019.103-.109.177-.213.177h-2.284c-.105 0-.195-.076-.214-.179l-.678-3.519a.76.76 0 0 0-.39-.529 8.56 8.56 0 0 1-4.726-7.974 9.31 9.31 0 0 1 1.174-4.739c.76-1.285 1.846-2.346 3.149-3.075.155-.084.253-.246.254-.423s-.093-.34-.247-.427-.343-.083-.493.01a9.22 9.22 0 0 0-4.681 6.89h0l-.14-.015a2.41 2.41 0 0 0-.178-.967c-.231-.657-.789-1.144-1.471-1.285a1.34 1.34 0 0 0-1.261.561 1.28 1.28 0 0 0-.243 1.391c.244.506.871.859 1.913 1.082q-.042.065-.094.129a2.38 2.38 0 0 1-1.808.963c-.277.003-.5.229-.5.506h0c0 .272.215.496.487.506h.113c.991-.042 1.904-.548 2.464-1.366a2.77 2.77 0 0 0 .354-.572l.263.027h0l-.025.8c-.037 1.881.458 3.735 1.429 5.347a9.8 9.8 0 0 0 3.724 3.439l.659 3.422a1.19 1.19 0 0 0 1.166.966h2.288a1.19 1.19 0 0 0 1.166-.966l.335-1.769a20.42 20.42 0 0 0 2.144.111 21.29 21.29 0 0 0 2.969-.2l.353 1.865a1.19 1.19 0 0 0 1.166.966h2.288a1.19 1.19 0 0 0 1.166-.966l.685-3.629c1.797-.894 3.301-2.282 4.338-4a.53.53 0 0 1 .294-.243l2.2-.708a1.82 1.82 0 0 0 1.274-1.74v-2.27a1.82 1.82 0 0 0-1.275-1.74zm-4.625-5.76c-.186 1.6-.687 2.959-1.19 3.244-.954.397-2.045.269-2.881-.338-.991-.725-1.322-2.03-.955-3.772h0c.042-.178.166-.326.333-.4a14.08 14.08 0 0 1 4.344-1.474.5.5 0 0 1 .176.023 4.94 4.94 0 0 1 .173 2.717zM1.36 16.964c-.051-.1.068-.285.144-.384.066-.111.183-.182.312-.189a.4.4 0 0 1 .049 0c.332.1.594.358.7.688a1.47 1.47 0 0 1 .1.457c-.671-.138-1.192-.34-1.305-.572zM15.471 6.055V4.321c.6.042.82.316 1.025.316.256 0 .376-.325.376-.487 0-.419-.82-.6-1.4-.615v-.231c0-.1-.128-.2-.256-.2-.124-.013-.234.076-.248.2v.25c-.428-.01-.841.153-1.147.452s-.477.709-.476 1.137c0 1.094.854 1.4 1.619 1.674v2.008c-.871-.069-1.1-.667-1.384-.667-.213 0-.393.282-.393.487 0 .419.717.991 1.776 1.012h0v.265c.014.124.124.213.248.2.128 0 .256-.094.256-.2v-.3a1.66 1.66 0 0 0 1.144-.556c.292-.33.44-.764.411-1.204.004-1.158-.808-1.533-1.551-1.807zm-.453-.162c-.453-.171-.82-.35-.82-.837 0-.444.342-.658.82-.717zm.4 2.913v-1.8a1 1 0 0 1 .752.957.81.81 0 0 1-.755.846z"/></svg>