<svg xmlns="http://www.w3.org/2000/svg" width="75.749" height="56.201" xmlns:v="https://vecta.io/nano"><g fill="#57a4ff"><path d="M45.206 40.318h3.665v6.109h-3.665z"/><path d="M67.198 4.887v14.661H48.871v20.774h-28.1V31.77c-.001-2.024-1.641-3.664-3.665-3.665h-2.444L13.44 31.77H8.553V4.887c.001-2.024 1.641-3.664 3.665-3.665h51.314c2.024 0 3.665 1.641 3.666 3.665z"/><path d="M14.662 28.101l-1.222 3.665H8.553l-1.222-3.665z"/><path d="M14.662 28.101l-1.222 3.665H8.553l-1.222-3.665zm56.201-12.218H48.871c-2.024.001-3.664 1.641-3.665 3.665v31.766c0 1.553.98 2.938 2.444 3.455a3.6 3.6 0 0 0 1.222.211h21.992c2.024-.001 3.664-1.641 3.665-3.665V19.548a3.67 3.67 0 0 0-3.666-3.665zm0 31.766H48.871v-28.1h21.992z"/><ellipse cx="58.723" cy="50.951" rx="1.5" ry="1"/><path d="M42.762 51.314h-9.774l1.222-4.887h7.331zm4.888 3.455c-1.464-.517-2.444-1.902-2.444-3.455z"/></g><g fill="#004fac"><path d="M8.552 50.092H4.887a1.222 1.222 0 1 0 0 2.444h3.665a1.222 1.222 0 1 0 0-2.444zm4.888 0h-1.222a1.222 1.222 0 1 0 0 2.444h1.222a1.222 1.222 0 1 0 0-2.444zm57.422-35.431h-2.443V4.887C68.416 2.189 66.23.003 63.532 0H12.218C9.52.003 7.334 2.189 7.331 4.887v21.992H4.887C2.189 26.882.003 29.068 0 31.766v19.548c.003 2.698 2.189 4.884 4.887 4.887H17.1c2.698-.003 4.884-2.189 4.887-4.887v-3.665h10.657l-.611 2.444H28.1a1.22 1.22 0 0 0-1.222 1.222v3.665A1.22 1.22 0 0 0 28.1 56.2h42.762c2.698-.003 4.884-2.189 4.887-4.887V19.548c-.003-2.698-2.189-4.884-4.887-4.887zM19.548 51.314a2.45 2.45 0 0 1-2.444 2.444H4.887a2.45 2.45 0 0 1-2.444-2.444V31.766a2.45 2.45 0 0 1 2.444-2.444h1.562l.944 2.83a1.22 1.22 0 0 0 1.159.835h4.887a1.22 1.22 0 0 0 1.159-.835l.944-2.83H17.1a2.45 2.45 0 0 1 2.444 2.444zM9.026 29.322h3.94l-.408 1.222H9.434zm12.966 15.883V41.54h21.992v3.665zm21.992 2.444v2.444h-.267l-.611-2.444zM41.2 50.092h-6.647l.611-2.444h5.422zm-11.874 3.665v-1.222h14.812a4.88 4.88 0 0 0 .5 1.222zm14.658-34.209V39.1H21.992v-7.331c-.002-2.701-2.191-4.889-4.892-4.89H9.774V4.887a2.45 2.45 0 0 1 2.444-2.444h51.314a2.45 2.45 0 0 1 2.444 2.444v9.774h-17.1c-2.7.001-4.889 2.187-4.892 4.887zm29.322 31.766a2.45 2.45 0 0 1-2.444 2.444H48.871a2.45 2.45 0 0 1-2.444-2.444V19.548a2.45 2.45 0 0 1 2.444-2.448h21.991a2.45 2.45 0 0 1 2.444 2.444zm-2.443-32.988H48.871a1.22 1.22 0 0 0-1.222 1.222v28.1a1.22 1.22 0 0 0 1.222 1.222h21.992a1.22 1.22 0 0 0 1.222-1.222v-28.1a1.22 1.22 0 0 0-1.222-1.222zm-1.222 28.1H50.093V20.77h19.548z"/><ellipse cx="58.722" cy="50.951" rx="1.5" ry="1"/></g></svg>