<svg xmlns="http://www.w3.org/2000/svg" width="24.021" height="24.021" fill="#7e7e7e" xmlns:v="https://vecta.io/nano"><path d="M13.131 24.021h-2.242A1.5 1.5 0 0 1 9.4 22.7l-.239-1.878a9.458 9.458 0 0 1-1.375-.569l-1.5 1.162a1.493 1.493 0 0 1-1.987-.126l-1.57-1.577a1.489 1.489 0 0 1-.122-1.981l1.162-1.5A9.241 9.241 0 0 1 3.2 14.86l-1.882-.239A1.5 1.5 0 0 1 0 13.131v-2.242A1.5 1.5 0 0 1 1.321 9.4L3.2 9.163a9.458 9.458 0 0 1 .569-1.375l-1.161-1.5A1.492 1.492 0 0 1 2.734 4.3l1.577-1.572a1.49 1.49 0 0 1 1.981-.122l1.5 1.163A9.424 9.424 0 0 1 9.163 3.2L9.4 1.318A1.5 1.5 0 0 1 10.889 0h2.242a1.5 1.5 0 0 1 1.487 1.321l.24 1.879a9.424 9.424 0 0 1 1.376.569l1.5-1.162a1.492 1.492 0 0 1 1.987.127l1.571 1.576a1.489 1.489 0 0 1 .122 1.981l-1.162 1.5a9.24 9.24 0 0 1 .569 1.375L22.7 9.4a1.5 1.5 0 0 1 1.317 1.488v2.242a1.5 1.5 0 0 1-1.317 1.489l-1.878.239a9.458 9.458 0 0 1-.569 1.375l1.162 1.5a1.491 1.491 0 0 1-.127 1.987l-1.576 1.576a1.488 1.488 0 0 1-1.981.122l-1.5-1.162a9.24 9.24 0 0 1-1.375.569L14.62 22.7a1.5 1.5 0 0 1-1.488 1.318zm-5.394-4.864a.507.507 0 0 1 .244.063 8.4 8.4 0 0 0 1.776.737.5.5 0 0 1 .358.417l.28 2.2a.506.506 0 0 0 .494.444h2.242a.5.5 0 0 0 .493-.439l.281-2.206a.5.5 0 0 1 .358-.417 8.4 8.4 0 0 0 1.776-.737.5.5 0 0 1 .55.042l1.752 1.361A.492.492 0 0 0 19 20.59L20.584 19a.5.5 0 0 0 .039-.661l-1.361-1.752a.5.5 0 0 1-.042-.55 8.4 8.4 0 0 0 .737-1.776.5.5 0 0 1 .417-.358l2.2-.28a.508.508 0 0 0 .444-.5v-2.234a.5.5 0 0 0-.439-.493l-2.206-.281a.5.5 0 0 1-.417-.358 8.4 8.4 0 0 0-.737-1.776.5.5 0 0 1 .042-.55l1.361-1.752a.491.491 0 0 0-.033-.655L19 3.438a.493.493 0 0 0-.661-.039L16.592 4.76a.5.5 0 0 1-.551.042 8.366 8.366 0 0 0-1.776-.737.5.5 0 0 1-.358-.417l-.28-2.2a.508.508 0 0 0-.5-.445h-2.238a.5.5 0 0 0-.493.439l-.281 2.206a.5.5 0 0 1-.358.418 8.363 8.363 0 0 0-1.776.734.5.5 0 0 1-.551-.041L5.678 3.4a.491.491 0 0 0-.655.033L3.437 5.018a.5.5 0 0 0-.039.661L4.759 7.43a.5.5 0 0 1 .042.55 8.349 8.349 0 0 0-.737 1.776.5.5 0 0 1-.417.358l-2.2.28a.506.506 0 0 0-.447.495v2.242a.5.5 0 0 0 .439.493l2.206.281a.5.5 0 0 1 .417.358A8.4 8.4 0 0 0 4.8 16.04a.5.5 0 0 1-.042.55L3.4 18.342a.491.491 0 0 0 .03.658l1.586 1.586a.5.5 0 0 0 .661.039l1.752-1.361a.515.515 0 0 1 .308-.1zm4.269-2.142a5 5 0 1 1 5-5 5.01 5.01 0 0 1-5 5zm0-9.009a4 4 0 1 0 4 4 4.01 4.01 0 0 0-4-4z"/></svg>