<svg xmlns="http://www.w3.org/2000/svg" width="63.835" height="71.051" xmlns:v="https://vecta.io/nano"><path d="M50.161 51.783l-7.141-2.38h-22.2l-7.141 2.38C6.338 54.229 1.388 61.929 1.388 69.664h61.06c0-7.735-4.95-15.435-12.287-17.881z" fill="#444b75"/><path d="M45.746 22.395l-3.282-.469a23.55 23.55 0 0 1-13.322-6.661 11.1 11.1 0 0 0-8.881 4.441l-2.165 2.886c.11 3.261.404 6.514.88 9.742.589 3.9 1.082 7.57 4.946 10.919l-.069.078-3.036 6.073a54.13 54.13 0 0 0 8.042 15.348l3.06 4.913 3.06-4.913a54.12 54.12 0 0 0 8.042-15.348l-3.036-6.073-.069-.078a13.68 13.68 0 0 0 4.465-7.988l.487-2.985a87.28 87.28 0 0 0 .88-9.883z" fill="#fff"/><path d="M45.746 22.395l-3.282-.469a23.55 23.55 0 0 1-13.322-6.661 11.1 11.1 0 0 0-8.881 4.441l-2.165 2.886c.11 3.261.404 6.514.88 9.742.589 3.9 1.082 7.57 4.946 10.919l-.069.078c-1.018 2.035 8.2 8.154 8.2 8.154l7.927-8.154-.069-.078a13.68 13.68 0 0 0 4.47-7.988l.487-2.985a87.28 87.28 0 0 0 .88-9.883z" fill="#a86931"/><path d="M51.348 20.816v8.743c0 1.533-1.242 2.775-2.775 2.775h-3.331l-.372-.056a87.27 87.27 0 0 0 .88-9.883q.027-.8.036-1.579h5.562z" fill="#bf8bde"/><path d="M33.159 6.939a12.68 12.68 0 0 1 12.635 12.685 91.98 91.98 0 0 1-.047 2.771l-3.283-.469a23.55 23.55 0 0 1-13.324-6.661 11.1 11.1 0 0 0-8.881 4.441l-2.165 2.886-.056-2.968A12.68 12.68 0 0 1 30.675 6.939h2.484z" fill="#444b75"/><path d="M31.917 35.11c1.533 0 2.775 1.243 2.775 2.775s-1.243 2.775-2.775 2.775h-2.775c-1.533 0-2.775-1.243-2.775-2.775s1.243-2.775 2.775-2.775zm-12.942-2.776h-3.711a2.77 2.77 0 0 1-1.962-.813c-.52-.521-.813-1.226-.813-1.962v-8.743h5.562q.01.881.044 1.776a86.86 86.86 0 0 0 .88 9.742z" fill="#bf8bde"/><path d="M47.183 57.729a1.39 1.39 0 1 0-1.388-1.387 1.39 1.39 0 0 0 1.388 1.387zM1.388 71.051h61.06a1.39 1.39 0 0 0 1.388-1.388c0-8.566-5.566-16.64-13.236-19.2l-6.6-2.2-2.368-4.736a15.2 15.2 0 0 0 4.114-8.041l.3-1.77h2.524a4.17 4.17 0 0 0 4.163-4.163v-8.737A20.82 20.82 0 0 0 31.917 0a20.82 20.82 0 0 0-20.816 20.816v8.743a4.17 4.17 0 0 0 2.775 3.924v1.626a4.17 4.17 0 0 0 4.163 4.163h1.219a15.04 15.04 0 0 0 2.328 3.6 15.9 15.9 0 0 0 .611.658l-2.367 4.733-6.6 2.2C5.566 53.024 0 61.1 0 69.664a1.39 1.39 0 0 0 1.388 1.387zm30.53-4.012l-1.882-3.021q-.032-.051-.067-.1a52.91 52.91 0 0 1-3.127-4.671l4.949-5.234 5.215 5.215a52.85 52.85 0 0 1-3.138 4.69c-.068.091.032-.052-1.95 3.121zm6.491-10.332L33.7 52l5.931-6.272 1.885 3.772a52.86 52.86 0 0 1-3.107 7.207zm-6.674-6.674l-2.709-2.71a13.92 13.92 0 0 0 5.161.116zm-7.763-3.838l5.856 5.856-4.4 4.655a52.92 52.92 0 0 1-3.107-7.2zM61 68.276H34.417l1.707-2.74c1.396-1.867 2.674-3.82 3.825-5.847l.02-.037h0a55.63 55.63 0 0 0 3.908-8.495l5.845 1.943C55.879 55.153 60.454 61.4 61 68.276zm-45.735-37.33a1.39 1.39 0 0 1-1.388-1.388V22.2h2.817q.007.217.015.437v.015a91.06 91.06 0 0 0 .674 8.29h-2.118zM44.4 20.787l-1.736-.234a22.3 22.3 0 0 1-12.537-6.269 1.39 1.39 0 0 0-.981-.406c-3.737.01-7.275 1.684-9.653 4.567.594-5.735 5.417-10.1 11.183-10.119h2.484c6.224.02 11.256 5.076 11.247 11.3l-.007 1.161zm5.562 8.772a1.39 1.39 0 0 1-1.388 1.388h-2.122c.353-2.732.588-5.64.682-8.5 0-.081 0-.159.007-.239h2.816zM31.918 2.775a18.07 18.07 0 0 1 17.987 16.653H47.18A14.06 14.06 0 0 0 33.16 5.551h-2.484c-7.68.018-13.924 6.197-14.021 13.877H13.93c.72-9.4 8.56-16.659 17.988-16.653zM16.653 35.109v-1.387h1.137l.3 1.771c.056.337.126.672.206 1h-.256a1.39 1.39 0 0 1-1.387-1.384zm8.565 4.163a4.17 4.17 0 0 0 3.924 2.775h2.775c2.299 0 4.163-1.864 4.163-4.163s-1.864-4.163-4.163-4.163h-2.775c-1.766 0-3.339 1.114-3.927 2.779h-4.047A79.32 79.32 0 0 1 19.5 23.029l1.868-2.49a9.77 9.77 0 0 1 7.223-3.87A25.1 25.1 0 0 0 42.268 23.3l2.043.292c-.137 2.9-.416 5.807-.815 8.481h0c-.127.86-.227 1.413-.483 2.959-.715 4.515-3.975 8.21-8.366 9.48a10.92 10.92 0 0 1-12.257-5.243zm2.537-1.388a1.39 1.39 0 0 1 1.387-1.384h2.775a1.39 1.39 0 0 1 1.351 1.388 1.39 1.39 0 0 1-1.351 1.388h-2.775a1.39 1.39 0 0 1-1.388-1.39zM14.113 53.1l5.841-1.947A55.63 55.63 0 0 0 23.9 59.72l.008.014h0a55.67 55.67 0 0 0 3.8 5.8l1.707 2.741H2.831C3.381 61.4 7.956 55.153 14.113 53.1zm37.1 6.99a11.08 11.08 0 0 1 3.138 3.81 1.39 1.39 0 0 0 1.849.596 1.39 1.39 0 0 0 .634-1.836 13.87 13.87 0 0 0-3.928-4.769 1.39 1.39 0 0 0-2.246.909 1.39 1.39 0 0 0 .554 1.291z"/></svg>