<svg xmlns="http://www.w3.org/2000/svg" width="29.365" height="24.47" fill="#707070" xmlns:v="https://vecta.io/nano"><path d="M6.729 13.459c-.161-.001-.315-.066-.429-.179L.179 7.162a.61.61 0 0 1 0-.865L6.3.18a.61.61 0 0 1 .667-.133.61.61 0 0 1 .378.565v3.059h12.231c.675.001 1.222.548 1.224 1.223v3.67c-.002.675-.548 1.221-1.223 1.223H7.341v3.059a.61.61 0 0 1-.378.565.6.6 0 0 1-.234.048zm-5.252-6.73l4.641 4.641V9.176a.61.61 0 0 1 .612-.612h12.846v-3.67H6.729a.61.61 0 0 1-.612-.612V2.089zM22.635 24.47a.6.6 0 0 1-.234-.046.61.61 0 0 1-.378-.565V20.8H9.788c-.675-.002-1.222-.549-1.223-1.224v-3.67c.001-.675.548-1.222 1.223-1.224h12.235v-3.058a.61.61 0 0 1 1.045-.433l6.118 6.121a.61.61 0 0 1 0 .865l-6.121 6.114a.61.61 0 0 1-.43.179zM9.788 15.906v3.67h12.847a.61.61 0 0 1 .612.612v2.194l4.641-4.641-4.641-4.641v2.194a.61.61 0 0 1-.612.612z"/></svg>