<svg xmlns="http://www.w3.org/2000/svg" width="66.611" height="66.611" xmlns:v="https://vecta.io/nano"><path d="M30.95 51.202a3.33 3.33 0 0 0 4.71 0l12.56-12.56a3.33 3.33 0 0 0-1.47-5.619 3.33 3.33 0 0 0-3.24.909l-6.874 6.878V4.441a3.33 3.33 0 0 0-3.331-3.273 3.33 3.33 0 0 0-3.331 3.273V40.81L23.1 33.935a3.33 3.33 0 0 0-5.619 1.47 3.33 3.33 0 0 0 .909 3.24z" fill="#ffd54f"/><path d="M62.17 29.975a3.33 3.33 0 0 0-3.331 3.331V58.84H7.771V33.306a3.33 3.33 0 0 0-5.013-2.933 3.33 3.33 0 0 0-1.648 2.933V59.95a5.55 5.55 0 0 0 5.551 5.551h53.288A5.55 5.55 0 0 0 65.5 59.95V33.306a3.33 3.33 0 0 0-3.33-3.331z" fill="#2096f3"/><path d="M33.305 53.286c-1.178.002-2.308-.466-3.14-1.3l-12.56-12.56a4.441 4.441 0 1 1 6.28-6.28l4.979 4.979V4.441a4.44 4.44 0 0 1 6.68-3.902 4.44 4.44 0 0 1 2.201 3.902v33.686l4.979-4.979a4.44 4.44 0 1 1 6.28 6.28l-12.56 12.56c-.832.833-1.962 1.3-3.139 1.298zm-1.57-2.869c.868.866 2.272.866 3.14 0l12.56-12.561a2.22 2.22 0 1 0-3.14-3.14l-6.874 6.875a1.11 1.11 0 0 1-1.9-.785V4.441a2.22 2.22 0 1 0-4.441 0v36.366a1.11 1.11 0 0 1-1.9.785l-6.866-6.874a2.22 2.22 0 1 0-3.14 3.14l12.561 12.56zm28.214 16.194H6.661A6.67 6.67 0 0 1 0 59.95V33.306a4.44 4.44 0 0 1 6.68-3.902 4.44 4.44 0 0 1 2.201 3.902V57.73h48.848V33.306a4.44 4.44 0 0 1 6.68-3.902 4.44 4.44 0 0 1 2.201 3.902V59.95a6.67 6.67 0 0 1-6.661 6.661zM4.441 31.085c-1.225.002-2.218.995-2.22 2.22v26.644c.003 2.452 1.989 4.438 4.441 4.441h53.287c2.452-.003 4.438-1.989 4.441-4.441V33.306a2.221 2.221 0 1 0-4.441 0V58.84a1.11 1.11 0 0 1-1.11 1.11H7.771a1.11 1.11 0 0 1-1.11-1.11V33.306c-.001-1.226-.994-2.219-2.22-2.221z" fill="#0d47a0"/></svg>