<svg xmlns="http://www.w3.org/2000/svg" width="59.949" height="71.051" xmlns:v="https://vecta.io/nano"><path d="M58.238 11.505L31.039.212c-.681-.283-1.447-.283-2.128 0l-27.2 11.293C.675 11.935 0 12.946 0 14.068V27.8a46.48 46.48 0 0 0 28.926 43.046c.673.275 1.427.275 2.1 0A46.48 46.48 0 0 0 59.949 27.8V14.068c0-1.122-.675-2.133-1.711-2.563zM54.4 27.8a40.94 40.94 0 0 1-24.425 37.461A40.94 40.94 0 0 1 5.551 27.8V15.921l24.424-10.14L54.4 15.921zm-27.493 9.352l11.929-11.93c1.084-1.084 2.841-1.084 3.925 0s1.084 2.841 0 3.925L28.87 43.039c-.52.521-1.226.813-1.963.813s-1.442-.292-1.962-.813l-7.757-7.757c-1.084-1.084-1.084-2.841 0-3.925s2.841-1.084 3.925 0z" fill="#118e0d"/></svg>