<svg xmlns="http://www.w3.org/2000/svg" width="22.576" height="25.276" viewBox="0 0 22.576 25.276"><defs><style>.a{fill:#272727;}</style></defs><g transform="translate(0)"><g transform="translate(0)"><g transform="translate(16.899 4.046)"><path class="a" d="M370.149,86.319a.494.494,0,0,1-.494-.494V82.45a.494.494,0,0,1,.987,0v3.376A.494.494,0,0,1,370.149,86.319Z" transform="translate(-369.655 -81.956)"/></g><g transform="translate(16.897 2.457)"><ellipse class="a" cx="0.494" cy="0.494" rx="0.494" ry="0.494"/></g><path class="a" d="M49.928,5.186a5.183,5.183,0,0,0-8.335-4.118H29.149a1.8,1.8,0,0,0-1.8,1.8V20.824a1.8,1.8,0,0,0,1.8,1.8h1.566v.859a1.8,1.8,0,0,0,1.8,1.8H45.419a1.8,1.8,0,0,0,1.8-1.8V16.632a.494.494,0,1,0-.987,0V23.48a.81.81,0,0,1-.809.809H32.512a.81.81,0,0,1-.809-.809v-.859H42.056a1.8,1.8,0,0,0,1.8-1.8V10.3a5.2,5.2,0,0,0,2.376-.141v2.013a.494.494,0,1,0,.987,0V9.744a5.191,5.191,0,0,0,2.711-4.557ZM42.866,20.824a.81.81,0,0,1-.809.809H29.149a.81.81,0,0,1-.809-.809V2.865a.81.81,0,0,1,.809-.809H40.61a5.159,5.159,0,0,0-1.049,2.911H31.155a.494.494,0,0,0-.494.494V7.546a.494.494,0,0,0,.494.494h8.9a.492.492,0,0,0,.3-.1,5.216,5.216,0,0,0,2.517,2.082ZM39.557,5.955v1.1H31.648v-1.1Zm5.185,3.431a4.2,4.2,0,1,1,4.2-4.2A4.2,4.2,0,0,1,44.742,9.385Z" transform="translate(-27.352)"/><g transform="translate(18.878 13.899)"><path class="a" d="M410.235,282.527a.494.494,0,1,1,.481-.382A.5.5,0,0,1,410.235,282.527Z" transform="translate(-409.742 -281.541)"/></g><g transform="translate(3.309 9.757)"><path class="a" d="M103.767,198.62h-8.9a.494.494,0,0,1,0-.987h8.9a.494.494,0,0,1,0,.987Z" transform="translate(-94.377 -197.633)"/><g transform="translate(0 2.342)"><path class="a" d="M103.767,246.05h-8.9a.494.494,0,0,1,0-.987h8.9a.494.494,0,0,1,0,.987Z" transform="translate(-94.377 -245.063)"/></g><g transform="translate(0 4.683)"><path class="a" d="M103.767,293.48h-8.9a.494.494,0,1,1,0-.987h8.9a.494.494,0,1,1,0,.987Z" transform="translate(-94.377 -292.493)"/></g><g transform="translate(0 7.025)"><path class="a" d="M103.767,340.91h-8.9a.494.494,0,0,1,0-.987h8.9a.494.494,0,0,1,0,.987Z" transform="translate(-94.377 -339.923)"/></g></g></g></g></svg>