<svg xmlns="http://www.w3.org/2000/svg" width="25.274" height="25.276" viewBox="0 0 25.274 25.276"><defs><style>.a{fill:#fff;}</style></defs><path class="a" d="M25.095,10.993l0,0L14.782.681a2.327,2.327,0,0,0-3.291,0L1.186,10.986,1.176,11a2.326,2.326,0,0,0,1.548,3.964c.024,0,.048,0,.072,0h.411v7.588A2.727,2.727,0,0,0,5.93,25.276H9.964a.741.741,0,0,0,.741-.741V18.586a1.244,1.244,0,0,1,1.243-1.242h2.379a1.244,1.244,0,0,1,1.242,1.242v5.949a.741.741,0,0,0,.741.741h4.034a2.726,2.726,0,0,0,2.724-2.723V14.965h.381a2.327,2.327,0,0,0,1.647-3.971Zm-1.049,2.242a.841.841,0,0,1-.6.248H22.326a.74.74,0,0,0-.741.741v8.328a1.244,1.244,0,0,1-1.242,1.242H17.05V18.586a2.727,2.727,0,0,0-2.724-2.724H11.947a2.727,2.727,0,0,0-2.724,2.724v5.208H5.93a1.244,1.244,0,0,1-1.242-1.242V14.224a.74.74,0,0,0-.741-.741h-1.1l-.035,0a.845.845,0,0,1-.583-1.443h0l10.31-10.31a.845.845,0,0,1,1.2,0L24.043,12.036l0,0a.848.848,0,0,1,0,1.2Zm0,0" transform="translate(-0.5 0.001)"/></svg>