<svg xmlns="http://www.w3.org/2000/svg" width="26.24" height="26.24" viewBox="0 0 26.24 26.24"><defs><style>.a{fill:#590d0d;}</style></defs><path class="a" d="M212.023,209.511A2.511,2.511,0,1,1,209.511,207,2.511,2.511,0,0,1,212.023,209.511Zm0,0" transform="translate(-196.391 -196.391)"/><path class="a" d="M147.534,137.222a2.5,2.5,0,0,0-1.43-1.43,4.169,4.169,0,0,0-1.4-.259c-.795-.036-1.033-.044-3.044-.044s-2.25.008-3.044.044a4.171,4.171,0,0,0-1.4.259,2.5,2.5,0,0,0-1.43,1.43,4.172,4.172,0,0,0-.259,1.4c-.036.794-.044,1.033-.044,3.044s.008,2.25.044,3.044a4.169,4.169,0,0,0,.259,1.4,2.5,2.5,0,0,0,1.43,1.43,4.167,4.167,0,0,0,1.4.259c.794.036,1.032.044,3.044.044s2.25-.008,3.044-.044a4.167,4.167,0,0,0,1.4-.259,2.5,2.5,0,0,0,1.43-1.43,4.173,4.173,0,0,0,.26-1.4c.036-.795.044-1.033.044-3.044s-.008-2.25-.044-3.044A4.165,4.165,0,0,0,147.534,137.222Zm-5.873,8.312a3.869,3.869,0,1,1,3.869-3.869A3.869,3.869,0,0,1,141.661,145.533Zm4.021-6.986a.9.9,0,1,1,.9-.9A.9.9,0,0,1,145.683,138.547Zm0,0" transform="translate(-128.541 -128.545)"/><path class="a" d="M13.12,0A13.12,13.12,0,1,0,26.24,13.12,13.121,13.121,0,0,0,13.12,0Zm7.488,16.226a5.527,5.527,0,0,1-.35,1.829,3.852,3.852,0,0,1-2.2,2.2,5.531,5.531,0,0,1-1.829.35c-.8.037-1.06.045-3.106.045s-2.3-.009-3.106-.045a5.531,5.531,0,0,1-1.829-.35,3.852,3.852,0,0,1-2.2-2.2,5.526,5.526,0,0,1-.35-1.829c-.037-.8-.046-1.06-.046-3.106s.009-2.3.045-3.106a5.528,5.528,0,0,1,.35-1.829,3.855,3.855,0,0,1,2.2-2.2,5.532,5.532,0,0,1,1.829-.35c.8-.037,1.06-.045,3.106-.045s2.3.009,3.106.046a5.534,5.534,0,0,1,1.829.35,3.853,3.853,0,0,1,2.2,2.2,5.527,5.527,0,0,1,.35,1.829c.037.8.045,1.06.045,3.106S20.645,15.423,20.608,16.226Zm0,0"/></svg>