<svg xmlns="http://www.w3.org/2000/svg" width="26.24" height="26.24" fill="#590d0d" xmlns:v="https://vecta.io/nano"><path d="M15.632 13.12a2.511 2.511 0 0 1-5.022.001 2.51 2.51 0 1 1 5.022-.001zm3.361-4.443a2.5 2.5 0 0 0-1.43-1.43 4.17 4.17 0 0 0-1.4-.259l-3.044-.044-3.044.044a4.17 4.17 0 0 0-1.4.259 2.5 2.5 0 0 0-1.43 1.43 4.17 4.17 0 0 0-.259 1.4l-.044 3.044.044 3.044a4.17 4.17 0 0 0 .259 1.4 2.5 2.5 0 0 0 1.43 1.43c.448.166.922.254 1.4.259l3.044.044 3.044-.044c.478-.005.952-.093 1.4-.259a2.5 2.5 0 0 0 1.43-1.43 4.18 4.18 0 0 0 .26-1.4l.044-3.044-.044-3.044a4.18 4.18 0 0 0-.26-1.4zm-5.873 8.312a3.87 3.87 0 0 1-3.869-3.869 3.87 3.87 0 0 1 3.869-3.869 3.87 3.87 0 0 1 3.869 3.869 3.87 3.87 0 0 1-3.869 3.868zm4.021-6.986a.9.9 0 1 1 .9-.9.9.9 0 0 1-.899.899zM13.12 0a13.12 13.12 0 1 0 13.12 13.12A13.121 13.121 0 0 0 13.12 0zm7.488 16.226a5.527 5.527 0 0 1-.35 1.829 3.852 3.852 0 0 1-2.2 2.2 5.531 5.531 0 0 1-1.829.35l-3.106.045c-2.046 0-2.3-.009-3.106-.045a5.531 5.531 0 0 1-1.829-.35 3.852 3.852 0 0 1-2.2-2.2 5.526 5.526 0 0 1-.35-1.829l-.046-3.106.045-3.106a5.528 5.528 0 0 1 .35-1.829 3.855 3.855 0 0 1 2.2-2.2 5.532 5.532 0 0 1 1.829-.35l3.106-.045 3.106.046a5.534 5.534 0 0 1 1.829.35 3.853 3.853 0 0 1 2.2 2.2 5.527 5.527 0 0 1 .35 1.829l.045 3.106-.044 3.105zm0 0"/></svg>