<svg xmlns="http://www.w3.org/2000/svg" width="24.288" height="24.29" viewBox="0 0 24.288 24.29"><defs><style>.a{fill:#272727;}</style></defs><path class="a" d="M140.826,126.1h-6.446a1.5,1.5,0,0,0-1.492,1.489l0,.65h-.052a1.954,1.954,0,1,0,0,3.909h.029l-.02,2.89h-2.513a1.985,1.985,0,0,0-.023-.481,1.945,1.945,0,0,0-1.724-1.61,1.92,1.92,0,0,0-1.492.494,1.963,1.963,0,0,0-.641,1.451q0,.072.005.145H125.13a1.5,1.5,0,0,0-1.492,1.5V143.1a1.5,1.5,0,0,0,1.492,1.5h7.714l7.92.062h.012a1.478,1.478,0,0,0,1.044-.429,1.493,1.493,0,0,0,.447-1.061l.048-7.51h0V127.6a1.5,1.5,0,0,0-1.492-1.5ZM132.768,144h-7.637a.9.9,0,0,1-.9-.908v-6.557a.9.9,0,0,1,.9-.908h1.52a.412.412,0,0,0,.317-.148.418.418,0,0,0,.09-.344,1.37,1.37,0,0,1,.425-1.258,1.336,1.336,0,0,1,1.037-.343,1.351,1.351,0,0,1,1.2,1.12,1.382,1.382,0,0,1,0,.48.419.419,0,0,0,.091.344.413.413,0,0,0,.318.149h2.709l-.017,2.236a1.941,1.941,0,0,0-2.089,1.742,1.971,1.971,0,0,0,.488,1.514,1.943,1.943,0,0,0,1.429.647c.047,0,.095,0,.142,0Zm8.907-.84a.905.905,0,0,1-.271.643.889.889,0,0,1-.628.258h-.007l-7.409-.058.019-2.438a.415.415,0,0,0-.489-.411,1.3,1.3,0,0,1-.243.02,1.362,1.362,0,1,1,.262-2.7.416.416,0,0,0,.5-.405l.019-2.439,2.507.02a1.983,1.983,0,0,0,.023.483,1.945,1.945,0,0,0,1.724,1.61q.1.009.193.009a1.915,1.915,0,0,0,1.3-.5,1.963,1.963,0,0,0,.641-1.451c0-.048,0-.1-.005-.145h1.917Zm.05-8.1H139.6a.412.412,0,0,0-.317.148.418.418,0,0,0-.09.344,1.37,1.37,0,0,1-.425,1.258,1.335,1.335,0,0,1-1.037.343,1.351,1.351,0,0,1-1.2-1.119,1.383,1.383,0,0,1,0-.481.419.419,0,0,0-.089-.343.413.413,0,0,0-.316-.15l-2.707-.022.022-3.182c0-.005,0-.011,0-.016a.1.1,0,0,0,0-.013c0-.005,0-.011,0-.016s0-.009,0-.013,0-.01,0-.015l0-.013,0-.015,0-.013-.006-.014-.006-.012-.007-.013-.007-.012-.008-.012-.008-.011-.009-.01-.01-.011-.01-.009-.011-.01-.01-.008-.012-.009-.011-.007-.013-.008-.012-.006-.014-.007-.013,0-.015-.005-.013,0-.015,0-.014,0-.015,0h-.029l-.327,0a1.362,1.362,0,1,1,0-2.724l.346,0h.029l.014,0,.016,0,.014,0,.014,0,.014,0,.013,0,.014-.007.012-.006.014-.008.011-.007.013-.009.01-.008.012-.01.009-.009.01-.011.009-.01.009-.012.008-.011.008-.012.007-.012.006-.013.006-.013,0-.014,0-.013s0-.01,0-.015,0-.009,0-.014l0-.015c0-.005,0-.009,0-.014s0-.01,0-.016,0-.008,0-.012l.007-.941a.906.906,0,0,1,.9-.9h6.446a.9.9,0,0,1,.9.908Z" transform="translate(-118.029 -120.368)"/><path class="a" d="M454.2,257.265a.3.3,0,0,0-.3.3v.615a.3.3,0,1,0,.592,0v-.615A.3.3,0,0,0,454.2,257.265Z" transform="translate(-431.986 -245.057)"/><path class="a" d="M454.2,161.967a.3.3,0,0,0-.3.3v3.22a.3.3,0,0,0,.592,0v-3.22A.3.3,0,0,0,454.2,161.967Z" transform="translate(-431.986 -154.464)"/><path class="a" d="M456.488,447.737a.3.3,0,0,0,.3-.3v-.615a.3.3,0,1,0-.592,0v.615A.3.3,0,0,0,456.488,447.737Z" transform="translate(-434.165 -424.979)"/><path class="a" d="M456.488,355.045a.3.3,0,0,0,.3-.3v-3.22a.3.3,0,1,0-.592,0v3.22A.3.3,0,0,0,456.488,355.045Z" transform="translate(-434.165 -334.385)"/><path class="a" d="M17.259,22.269a1.492,1.492,0,0,0,1.272-.709l.711-1.154a.416.416,0,0,0-.176-.595,1.367,1.367,0,1,1,1.149-2.481,1.385,1.385,0,0,1,.269.167.416.416,0,0,0,.614-.106l.865-1.4a1.5,1.5,0,0,0-.491-2.07l-1.37-.841a1.961,1.961,0,0,0-.409-2.7,1.918,1.918,0,0,0-1.535-.36,1.947,1.947,0,0,0-1.3.9q-.037.061-.069.125l-1.124-.69a1.487,1.487,0,0,0-2.051.5l-3.389,5.6a1.507,1.507,0,0,0,.5,2.06l.971.6a.395.395,0,0,0,.562-.165A1.2,1.2,0,1,1,14.3,20.2a.395.395,0,0,0,.107.577l2.08,1.277A1.474,1.474,0,0,0,17.259,22.269Zm-2.126-2.916a1.795,1.795,0,0,0-3.3-.853l-.8-.489a.913.913,0,0,1-.3-1.249l3.388-5.6a.894.894,0,0,1,1.234-.3l1.3.8a.411.411,0,0,0,.349.039.417.417,0,0,0,.255-.247,1.356,1.356,0,0,1,1.008-.85,1.332,1.332,0,0,1,1.066.251,1.369,1.369,0,0,1,.192,2,.412.412,0,0,0-.1.335.417.417,0,0,0,.195.295l1.539.945a.912.912,0,0,1,.3,1.254l-.765,1.242a1.991,1.991,0,0,0-.224-.124,1.947,1.947,0,0,0-2.37.575,1.969,1.969,0,0,0,.526,2.876l.013.008-.613,1a.9.9,0,0,1-1.231.3L14.89,20.376a1.8,1.8,0,0,0,.242-1.023Z" transform="translate(-10.011 -9.982)"/></svg>