<svg xmlns="http://www.w3.org/2000/svg" width="23.616" height="24.643" xmlns:v="https://vecta.io/nano"><g fill="#828282"><path d="M14.375 20.535a4.11 4.11 0 0 1-4.107 4.107 4.11 4.11 0 0 1-4.107-4.107 4.11 4.11 0 0 1 4.107-4.107c1.089 0 2.134.433 2.904 1.203s1.203 1.815 1.203 2.904zm0 0"/><path d="M17.464 12.241a7.17 7.17 0 0 1-5.56-9.992c-2.136-.509-4.388-.01-6.11 1.354S3.073 7.045 3.08 9.241v2.863c.001 2.033-.897 3.962-2.452 5.271A1.8 1.8 0 0 0 1.8 20.536h16.939a1.8 1.8 0 0 0 1.161-3.171c-1.511-1.278-2.398-3.146-2.434-5.125zm0 0"/></g><path d="M23.616 5.134c0 2.835-2.299 5.134-5.134 5.134s-5.134-2.299-5.134-5.134S15.647 0 18.482 0c1.362 0 2.667.541 3.63 1.504s1.504 2.269 1.504 3.63zm0 0" fill="#6b0606"/></svg>