<svg xmlns="http://www.w3.org/2000/svg" width="55.852" height="41.438" viewBox="0 0 55.852 41.438"><defs><style>.a{fill:#57a4ff;}.b{fill:#004fac;}</style></defs><g transform="translate(5.405 0.901)"><path class="a" d="M304,336h2.7v4.5H304Z" transform="translate(-276.074 -307.173)"/><path class="a" d="M107.24,82.7v10.81H93.727v15.314H73.008v-6.306a2.7,2.7,0,0,0-2.7-2.7H68.5l-.9,2.7H64V82.7A2.7,2.7,0,0,1,66.7,80h37.835A2.7,2.7,0,0,1,107.24,82.7Z" transform="translate(-63.099 -80)"/><g transform="translate(0 10.81)"><path class="a" d="M61.4,256l-.9,2.7H56.9L56,256Z" transform="translate(-56 -246.992)"/><path class="a" d="M61.4,256l-.9,2.7H56.9L56,256Z" transform="translate(-56 -246.992)"/><path class="a" d="M322.917,176H306.7a2.7,2.7,0,0,0-2.7,2.7v23.422a2.7,2.7,0,0,0,1.8,2.547,2.654,2.654,0,0,0,.9.155h16.215a2.7,2.7,0,0,0,2.7-2.7V178.7A2.7,2.7,0,0,0,322.917,176Zm0,23.422H306.7V178.7h16.215Z" transform="translate(-276.074 -176)"/><circle class="a" transform="translate(38.789 27.313)"/><path class="a" d="M231.207,379.6H224l.9-3.6h5.405Z" transform="translate(-205.082 -353.479)"/><path class="a" d="M305.8,410.547A2.7,2.7,0,0,1,304,408Z" transform="translate(-276.074 -381.876)"/></g></g><g transform="translate(0 0)"><path class="b" d="M35.6,400H32.9a.9.9,0,1,0,0,1.8h2.7a.9.9,0,1,0,0-1.8Z" transform="translate(-29.298 -363.066)"/><path class="b" d="M81.8,400h-.9a.9.9,0,1,0,0,1.8h.9a.9.9,0,1,0,0-1.8Z" transform="translate(-71.893 -363.066)"/><path class="b" d="M60.248,82.81h-1.8V75.6a3.608,3.608,0,0,0-3.6-3.6H17.008a3.607,3.607,0,0,0-3.6,3.6V91.818H11.6a3.607,3.607,0,0,0-3.6,3.6v14.413a3.607,3.607,0,0,0,3.6,3.6h9.008a3.608,3.608,0,0,0,3.6-3.6v-2.7h7.854l-.45,1.8h-2.9a.9.9,0,0,0-.9.9v2.7a.9.9,0,0,0,.9.9H60.248a3.608,3.608,0,0,0,3.6-3.6V86.413A3.608,3.608,0,0,0,60.248,82.81ZM22.413,109.835a1.8,1.8,0,0,1-1.8,1.8H11.6a1.8,1.8,0,0,1-1.8-1.8V95.422a1.8,1.8,0,0,1,1.8-1.8h1.152l.7,2.087a.9.9,0,0,0,.855.616h3.6a.9.9,0,0,0,.855-.616l.7-2.086h1.152a1.8,1.8,0,0,1,1.8,1.8ZM14.655,93.62H17.56l-.3.9h-2.3Zm9.56,11.711v-2.7H40.43v2.7Zm16.215,1.8v1.8h-.2l-.45-1.8Zm-2.055,1.8h-4.9l.45-1.8h4Zm-8.755,2.7v-.9H40.544a3.6,3.6,0,0,0,.372.9ZM40.43,86.413v14.413H24.215V95.422a3.608,3.608,0,0,0-3.6-3.6h-5.4V75.6a1.8,1.8,0,0,1,1.8-1.8H54.843a1.8,1.8,0,0,1,1.8,1.8V82.81H44.033A3.608,3.608,0,0,0,40.43,86.413Zm21.62,23.422a1.8,1.8,0,0,1-1.8,1.8H44.033a1.8,1.8,0,0,1-1.8-1.8V86.413a1.8,1.8,0,0,1,1.8-1.8H60.248a1.8,1.8,0,0,1,1.8,1.8Z" transform="translate(-8 -72)"/><path class="b" d="M337.116,192H320.9a.9.9,0,0,0-.9.9V213.62a.9.9,0,0,0,.9.9h16.215a.9.9,0,0,0,.9-.9V192.9A.9.9,0,0,0,337.116,192Zm-.9,20.719H321.8V193.8h14.413Z" transform="translate(-284.868 -178.488)"/><circle class="b" transform="translate(44.194 39.024)"/></g></svg>