<svg xmlns="http://www.w3.org/2000/svg" width="47.067" height="52.387" xmlns:v="https://vecta.io/nano"><path d="M36.984 38.181l-5.261-1.755H15.348l-5.265 1.755c-5.41 1.8-9.059 7.481-9.059 13.184h45.019c0-5.704-3.649-11.38-9.059-13.184z" fill="#444b75"/><path d="M33.729 16.512l-2.42-.346c-3.719-.531-7.165-2.255-9.822-4.911-2.575.001-5 1.214-6.545 3.274l-1.6 2.128a64.1 64.1 0 0 0 .649 7.183c.434 2.875.8 5.582 3.647 8.05l-.051.057-2.239 4.478c1.356 4.066 3.358 7.887 5.929 11.317l2.256 3.622 2.256-3.622a39.91 39.91 0 0 0 5.929-11.317l-2.239-4.478-.051-.057a10.09 10.09 0 0 0 3.294-5.891l.359-2.2c.354-2.415.571-4.848.649-7.287z" fill="#fff"/><path d="M33.729 16.512l-2.42-.346c-3.719-.531-7.165-2.255-9.822-4.911-2.575.001-5 1.214-6.545 3.274l-1.6 2.128a64.1 64.1 0 0 0 .649 7.183c.434 2.875.8 5.582 3.647 8.05l-.051.057c-.75 1.5 6.049 6.012 6.049 6.012l5.844-6.012-.051-.057a10.09 10.09 0 0 0 3.294-5.891l.359-2.2c.354-2.415.571-4.848.649-7.287z" fill="#a86931"/><path d="M37.862 15.348v6.446c0 .543-.216 1.063-.6 1.447s-.905.599-1.447.599h-2.456l-.274-.041a64.3 64.3 0 0 0 .649-7.287q.02-.586.027-1.164h4.1z" fill="#bf8bde"/><path d="M24.45 5.116a9.35 9.35 0 0 1 9.316 9.353l-.035 2.043-2.421-.346c-3.719-.531-7.166-2.254-9.823-4.911-2.576 0-5.002 1.213-6.548 3.274l-1.6 2.128a62.31 62.31 0 0 1-.041-2.189 9.35 9.35 0 0 1 9.32-9.352h1.832z" fill="#444b75"/><path d="M23.534 25.887a2.05 2.05 0 0 1 2.047 2.047c0 1.131-.916 2.047-2.047 2.047h-2.046a2.05 2.05 0 0 1-2.047-2.046c-.001-1.13.916-2.046 2.047-2.046zm-9.543-2.047h-2.736c-1.13 0-2.046-.916-2.046-2.046v-6.446h4.1q.008.649.033 1.31a64.11 64.11 0 0 0 .649 7.182z" fill="#bf8bde"/><path d="M34.788 42.565c.565 0 1.023-.458 1.023-1.023a1.02 1.02 0 0 0-1.022-1.023c-.565 0-1.023.457-1.024 1.022s.458 1.023 1.023 1.024zM1.023 52.387h45.02c.565 0 1.023-.458 1.023-1.023 0-6.316-4.1-12.269-9.759-14.155l-4.863-1.621L30.7 32.1c1.588-1.623 2.646-3.69 3.033-5.928l.218-1.305h1.862c1.695-.002 3.068-1.375 3.07-3.07v-6.449c0-8.478-6.872-15.35-15.35-15.35S8.183 6.87 8.183 15.348v6.446c.002 1.3.821 2.459 2.046 2.894v1.2c.002 1.695 1.375 3.068 3.07 3.07h.9a11.1 11.1 0 0 0 1.716 2.658c.145.167.3.328.451.485l-1.745 3.49-4.862 1.619C4.1 39.1 0 45.048 0 51.364a1.02 1.02 0 0 0 .3.723c.192.191.452.3.723.3zm22.51-2.958L22.146 47.2q-.023-.037-.05-.073a38.97 38.97 0 0 1-2.305-3.444l3.649-3.859 3.845 3.845c-.709 1.193-1.482 2.347-2.314 3.458-.05.073.021-.037-1.438 2.302zm4.786-7.618l-3.474-3.474 4.373-4.624 1.393 2.787a38.96 38.96 0 0 1-2.291 5.311zM23.4 36.89l-2-2c1.252.266 2.543.295 3.806.086zm-5.724-2.83l4.317 4.318-3.246 3.432a39 39 0 0 1-2.291-5.31zM44.98 50.341h-19.6l1.259-2.021c1.029-1.376 1.971-2.816 2.82-4.311l.015-.027h0a40.96 40.96 0 0 0 2.882-6.263l4.307 1.435a12.93 12.93 0 0 1 8.317 11.187zM11.255 22.817c-.565-.001-1.022-.458-1.023-1.023v-5.423h2.077q.005.16.011.322v.011c.072 2.054.243 4.142.5 6.112h-1.565zm21.479-7.491l-1.28-.173a16.44 16.44 0 0 1-9.244-4.622c-.192-.192-.452-.3-.723-.3A9.26 9.26 0 0 0 14.37 13.6a8.32 8.32 0 0 1 8.248-7.46h1.832a8.32 8.32 0 0 1 8.293 8.33l-.009.856zm4.1 6.468c-.001.565-.458 1.022-1.023 1.023H34.25c.26-2.015.433-4.159.5-6.27 0-.06 0-.117.006-.176h2.076zM23.533 2.046A13.32 13.32 0 0 1 36.8 14.325h-2.013c-.072-5.662-4.675-10.219-10.338-10.232h-1.831c-5.663.013-10.266 4.57-10.338 10.232h-2.009c.531-6.931 6.311-12.283 13.262-12.279zM12.278 25.887v-1.023h.839l.218 1.305c.042.248.093.5.152.741H13.3c-.564-.001-1.021-.459-1.022-1.023zm6.315 3.07c.436 1.224 1.594 2.042 2.894 2.043h2.046a3.07 3.07 0 1 0 0-6.139h-2.046a3.07 3.07 0 0 0-2.9 2.046h-2.979a58.52 58.52 0 0 1-1.228-9.93l1.377-1.836a7.2 7.2 0 0 1 5.326-2.853 18.51 18.51 0 0 0 10.082 4.889l1.506.215c-.1 2.137-.306 4.281-.6 6.254h0c-.094.634-.168 1.042-.356 2.182a8.69 8.69 0 0 1-6.169 6.99 8.05 8.05 0 0 1-9.037-3.865zm1.87-1.023a1.02 1.02 0 0 1 .3-.723c.192-.191.452-.3.723-.3h2.046c.365 0 .703.195.886.511a1.02 1.02 0 0 1-.886 1.534h-2.045c-.565-.001-1.023-.459-1.023-1.024zM10.406 39.151l4.307-1.435a40.99 40.99 0 0 0 2.912 6.317l.006.01h0a41.03 41.03 0 0 0 2.8 4.277l1.259 2.021H2.09a12.93 12.93 0 0 1 8.316-11.19zm27.355 5.155a8.17 8.17 0 0 1 2.313 2.809c.253.506.867.711 1.373.458s.711-.867.458-1.373a10.23 10.23 0 0 0-2.9-3.516c-.448-.345-1.09-.261-1.435.187s-.261 1.09.187 1.435z"/></svg>