<svg xmlns="http://www.w3.org/2000/svg" width="22.709" height="25.276" fill="#272727" xmlns:v="https://vecta.io/nano"><path d="M16.785 19.55c-.273 0-.494.221-.494.494s.221.494.494.494.494-.221.494-.494a.49.49 0 0 0-.145-.349c-.093-.092-.218-.145-.349-.145zM18 17.953l-2.346-.782-.842-1.685a5.41 5.41 0 0 0 1.463-2.86L16.38 12h.9c.817-.001 1.48-.664 1.481-1.481V7.405c0-4.09-3.315-7.405-7.405-7.405S3.951 3.315 3.951 7.405v3.11c-.001.629.395 1.19.987 1.4v.579c.001.817.664 1.48 1.481 1.481h.434a5.34 5.34 0 0 0 .828 1.282 5.34 5.34 0 0 0 .218.234l-.842 1.684-2.346.782C1.871 19.027-.007 21.748 0 24.783c0 .273.221.494.494.494h21.721c.273 0 .494-.221.494-.494.009-3.036-1.868-5.759-4.709-6.83zm-.228-7.438c0 .273-.221.494-.494.494h-.753a32.51 32.51 0 0 0 .243-3.025v-.085h1zm-12.342.494c-.273 0-.494-.221-.494-.494V7.9h1q0 .077.005.155v.005h0a32.04 32.04 0 0 0 .24 2.949H5.43zm.987 1.975c-.273 0-.494-.221-.494-.494V12h.4l.105.63c.02.12.045.239.073.357zm-.493-6.072h-.969a6.42 6.42 0 0 1 6.4-5.938 6.42 6.42 0 0 1 6.4 5.938h-.969A5 5 0 0 0 11.8 1.975h-.884a5 5 0 0 0-4.991 4.936zm4.988-3.949h.888c2.213.008 4.003 1.806 4 4.019v.414l-.617-.088c-1.688-.245-3.252-1.027-4.46-2.23-.093-.093-.218-.145-.349-.145A4.47 4.47 0 0 0 6.94 6.558c.213-2.037 1.925-3.587 3.973-3.596zM7.531 12.984a28.22 28.22 0 0 1-.592-4.791l.664-.886c.613-.814 1.553-1.317 2.57-1.377a8.93 8.93 0 0 0 4.865 2.359l.727.1a30.56 30.56 0 0 1-.29 3.017h0c-.045.306-.081.5-.172 1.053-.254 1.606-1.414 2.92-2.976 3.372-1.708.441-3.499-.325-4.36-1.865h1.006c.21.592.771.988 1.4.987h.987a1.481 1.481 0 1 0 0-2.962h-.987a1.48 1.48 0 0 0-1.4.987zm2.8 3.851a4.95 4.95 0 0 0 1.836.041l-.872.923zm.285 1.682L9.05 20.173a18.81 18.81 0 0 1-1.11-2.563l.588-1.176zm3.487-2.25l.672 1.343a18.8 18.8 0 0 1-1.105 2.564L11.988 18.5zm-4.224-2.789c0-.273.221-.494.494-.494h.987c.264.012.472.229.472.493s-.208.482-.472.494h-.987c-.132.001-.259-.05-.353-.143s-.146-.219-.146-.351zM1.007 24.289a6.24 6.24 0 0 1 4.014-5.4L7.1 18.2a19.79 19.79 0 0 0 1.4 3.045h0 0a19.8 19.8 0 0 0 1.351 2.064l.607.975zm10.347-.44l-.67-1.075q-.011-.018-.024-.035a18.86 18.86 0 0 1-1.112-1.662l1.761-1.862 1.855 1.855a18.8 18.8 0 0 1-1.116 1.668c-.024.033.01-.018-.693 1.111zm.889.44l.607-.975a19.82 19.82 0 0 0 1.361-2.08l.007-.013h0c.548-.966 1.014-1.977 1.392-3.021l2.078.693a6.24 6.24 0 0 1 4.014 5.4zm7.975-1.997c-.333-.665-.811-1.246-1.4-1.7-.217-.148-.511-.1-.67.108s-.129.504.07.675a3.94 3.94 0 0 1 1.116 1.355c.129.231.416.32.652.202s.338-.401.231-.643z"/></svg>