<svg xmlns="http://www.w3.org/2000/svg" width="47.067" height="52.387" viewBox="0 0 47.067 52.387"><defs><style>.a{fill:#444b75;}.b{fill:#fff;}.c{fill:#a86931;}.d{fill:#bf8bde;}</style></defs><path class="a" d="M71.961,357.755,66.7,356H50.325l-5.265,1.755c-5.41,1.8-9.059,7.481-9.059,13.184H81.02C81.02,365.235,77.371,359.559,71.961,357.755Z" transform="translate(-34.977 -319.574)"/><path class="b" d="M176.787,115.257l-2.42-.346A17.364,17.364,0,0,1,164.545,110,8.187,8.187,0,0,0,158,113.274l-1.6,2.128a64.1,64.1,0,0,0,.649,7.183c.434,2.875.8,5.582,3.647,8.05l-.051.057-2.239,4.478a39.915,39.915,0,0,0,5.929,11.317l2.256,3.622,2.256-3.622a39.911,39.911,0,0,0,5.929-11.317l-2.239-4.478-.051-.057a10.088,10.088,0,0,0,3.294-5.891c.2-1.2.269-1.588.359-2.2a64.365,64.365,0,0,0,.649-7.287Z" transform="translate(-143.058 -98.745)"/><path class="c" d="M176.787,115.257l-2.42-.346A17.364,17.364,0,0,1,164.545,110,8.187,8.187,0,0,0,158,113.274l-1.6,2.128a64.1,64.1,0,0,0,.649,7.183c.434,2.875.8,5.582,3.647,8.05l-.051.057c-.75,1.5,6.049,6.012,6.049,6.012l5.844-6.012-.051-.057a10.088,10.088,0,0,0,3.294-5.891c.2-1.2.269-1.588.359-2.2a64.365,64.365,0,0,0,.649-7.287Z" transform="translate(-143.058 -98.745)"/><path class="d" d="M354.1,150v6.446a2.046,2.046,0,0,1-2.047,2.046h-2.456l-.274-.041a64.3,64.3,0,0,0,.649-7.287q.02-.586.027-1.164h4.1Z" transform="translate(-316.238 -134.652)"/><path class="a" d="M167.148,50a9.348,9.348,0,0,1,9.316,9.353c0,.517-.011,1.341-.035,2.043l-2.421-.346a17.364,17.364,0,0,1-9.823-4.911,8.187,8.187,0,0,0-6.548,3.274l-1.6,2.128c-.027-.714-.041-1.548-.041-2.189A9.348,9.348,0,0,1,165.316,50h1.832Z" transform="translate(-142.698 -44.884)"/><g transform="translate(9.209 15.348)"><path class="d" d="M220.093,253a2.046,2.046,0,0,1,0,4.093h-2.046a2.046,2.046,0,1,1,0-4.093Z" transform="translate(-205.768 -242.461)"/><path class="d" d="M120.782,158.492h-2.736A2.046,2.046,0,0,1,116,156.446V150h4.1q.008.649.033,1.31A64.11,64.11,0,0,0,120.782,158.492Z" transform="translate(-116 -150)"/></g><path d="M357.023,398.047A1.023,1.023,0,1,0,356,397.023,1.024,1.024,0,0,0,357.023,398.047Z" transform="translate(-322.235 -355.482)"/><path d="M27.023,52.387h45.02a1.023,1.023,0,0,0,1.023-1.023c0-6.316-4.1-12.269-9.759-14.155l-4.863-1.621L56.7,32.1a11.207,11.207,0,0,0,3.033-5.928l.218-1.305h1.862a3.073,3.073,0,0,0,3.07-3.07V15.348a15.348,15.348,0,0,0-30.7,0v6.446a3.075,3.075,0,0,0,2.046,2.894v1.2a3.073,3.073,0,0,0,3.07,3.07h.9a11.1,11.1,0,0,0,1.716,2.658c.145.167.3.328.451.485l-1.745,3.49L35.759,37.21C30.1,39.1,26,45.048,26,51.364A1.023,1.023,0,0,0,27.023,52.387Zm22.51-2.958L48.146,47.2q-.023-.037-.05-.073a39.016,39.016,0,0,1-2.305-3.444l3.649-3.859,3.845,3.845a38.965,38.965,0,0,1-2.314,3.458C50.921,47.2,50.992,47.09,49.533,49.429Zm4.786-7.618-3.474-3.474,4.373-4.624L56.611,36.5A38.973,38.973,0,0,1,54.32,41.811ZM49.4,36.89l-2-2a10.263,10.263,0,0,0,3.806.086Zm-5.724-2.83,4.317,4.318L44.747,41.81A38.984,38.984,0,0,1,42.456,36.5ZM70.98,50.341h-19.6l1.259-2.021a41.015,41.015,0,0,0,2.82-4.311l.015-.027,0,0a40.984,40.984,0,0,0,2.882-6.263l4.307,1.435A12.931,12.931,0,0,1,70.98,50.341ZM37.255,22.817a1.024,1.024,0,0,1-1.023-1.023V16.371h2.077q.005.16.011.322s0,.007,0,.011h0c.072,2.054.243,4.142.5,6.112H37.255Zm21.479-7.491s0,.007,0,.01l-1.28-.183a16.441,16.441,0,0,1-9.244-4.622,1.023,1.023,0,0,0-.723-.3A9.257,9.257,0,0,0,40.37,13.6a8.317,8.317,0,0,1,8.248-7.46h1.832a8.32,8.32,0,0,1,8.293,8.33C58.742,14.791,58.74,15.071,58.734,15.326Zm4.1,6.468a1.024,1.024,0,0,1-1.023,1.023H60.25c.26-2.015.433-4.159.5-6.27,0-.06,0-.117.006-.176h2.076ZM49.533,2.046A13.319,13.319,0,0,1,62.8,14.325H60.787A10.363,10.363,0,0,0,50.449,4.093H48.618A10.363,10.363,0,0,0,38.28,14.325H36.271A13.294,13.294,0,0,1,49.533,2.046ZM38.278,25.887V24.864h.839l.218,1.305c.042.248.093.5.152.741H39.3A1.024,1.024,0,0,1,38.278,25.887Zm6.315,3.07A3.074,3.074,0,0,0,47.487,31h2.046a3.07,3.07,0,1,0,0-6.139H47.487a3.071,3.071,0,0,0-2.9,2.046H41.608a58.487,58.487,0,0,1-1.228-9.93l1.377-1.836a7.2,7.2,0,0,1,5.326-2.853,18.507,18.507,0,0,0,10.082,4.889l1.506.215c-.1,2.137-.306,4.281-.6,6.254v0c-.094.634-.168,1.042-.356,2.182a8.691,8.691,0,0,1-6.169,6.99,8.05,8.05,0,0,1-9.037-3.865Zm1.87-1.023a1.023,1.023,0,0,1,1.023-1.023h2.046a1.023,1.023,0,1,1,0,2.046H47.487A1.024,1.024,0,0,1,46.464,27.933ZM36.406,39.151l4.307-1.435a41.017,41.017,0,0,0,2.912,6.317l.006.01h0a41.03,41.03,0,0,0,2.8,4.277l1.259,2.021h-19.6A12.931,12.931,0,0,1,36.406,39.151Z" transform="translate(-26 0)"/><path d="M391.539,416.923a8.172,8.172,0,0,1,2.313,2.809,1.023,1.023,0,0,0,1.831-.915,10.232,10.232,0,0,0-2.9-3.516,1.023,1.023,0,0,0-1.248,1.622Z" transform="translate(-353.778 -372.617)"/></svg>