<svg xmlns="http://www.w3.org/2000/svg" width="26.24" height="26.24" viewBox="0 0 26.24 26.24"><defs><style>.a{fill:#590d0d;}</style></defs><path class="a" d="M13.12,0A13.12,13.12,0,1,0,26.24,13.12,13.121,13.121,0,0,0,13.12,0Zm5.99,10.23q.009.194.009.389a8.51,8.51,0,0,1-8.568,8.568h0a8.524,8.524,0,0,1-4.616-1.353,6.125,6.125,0,0,0,.718.042,6.042,6.042,0,0,0,3.74-1.289A3.015,3.015,0,0,1,7.58,14.5a3,3,0,0,0,1.36-.052,3.012,3.012,0,0,1-2.416-2.952c0-.014,0-.026,0-.038a2.991,2.991,0,0,0,1.364.377,3.014,3.014,0,0,1-.932-4.02,8.55,8.55,0,0,0,6.207,3.146A3.013,3.013,0,0,1,18.3,8.21a6.04,6.04,0,0,0,1.912-.731,3.023,3.023,0,0,1-1.324,1.666,6.006,6.006,0,0,0,1.729-.474,6.12,6.12,0,0,1-1.5,1.56Zm0,0"/></svg>