<svg xmlns="http://www.w3.org/2000/svg" width="49.113" height="49.113" viewBox="0 0 49.113 49.113"><defs><style>.a{fill:#ffd54f;}.b{fill:#2096f3;}.c{fill:#0d47a0;}</style></defs><path class="a" d="M151.471,60.934a2.456,2.456,0,0,0,3.473,0l9.261-9.261a2.456,2.456,0,1,0-3.473-3.473l-5.069,5.069V26.456a2.456,2.456,0,1,0-4.911,0V53.269L145.683,48.2a2.456,2.456,0,1,0-3.473,3.473Z" transform="translate(-128.65 -23.181)"/><path class="b" d="M69.021,232a2.456,2.456,0,0,0-2.456,2.456v18.827H28.911V234.456a2.456,2.456,0,0,0-4.911,0V254.1a4.093,4.093,0,0,0,4.093,4.093H67.383a4.093,4.093,0,0,0,4.093-4.093V234.456A2.456,2.456,0,0,0,69.021,232Z" transform="translate(-23.181 -209.899)"/><g transform="translate(0 0)"><path class="c" d="M146.025,55.289a3.264,3.264,0,0,1-2.315-.958l-9.261-9.261a3.274,3.274,0,1,1,4.63-4.63l3.672,3.671V19.274a3.274,3.274,0,1,1,6.548,0V44.112l3.671-3.671a3.274,3.274,0,0,1,4.631,4.63l-9.261,9.261A3.264,3.264,0,0,1,146.025,55.289Zm-1.158-2.115a1.639,1.639,0,0,0,2.315,0l9.261-9.261a1.637,1.637,0,1,0-2.315-2.315l-5.068,5.069a.819.819,0,0,1-1.4-.579V19.274a1.637,1.637,0,0,0-3.274,0V46.088a.818.818,0,0,1-1.4.579L137.922,41.6a1.637,1.637,0,1,0-2.315,2.315l9.261,9.261Z" transform="translate(-121.469 -16)"/><path class="c" d="M60.2,251.831H20.911A4.917,4.917,0,0,1,16,246.919V227.274a3.274,3.274,0,0,1,6.548,0v18.008H58.565V227.274a3.274,3.274,0,0,1,6.548,0v19.645a4.917,4.917,0,0,1-4.911,4.911ZM19.274,225.637a1.639,1.639,0,0,0-1.637,1.637v19.645a3.278,3.278,0,0,0,3.274,3.274H60.2a3.278,3.278,0,0,0,3.274-3.274V227.274a1.637,1.637,0,0,0-3.274,0V246.1a.819.819,0,0,1-.819.819H21.73a.819.819,0,0,1-.819-.819V227.274A1.639,1.639,0,0,0,19.274,225.637Z" transform="translate(-16 -202.718)"/></g></svg>