<svg xmlns="http://www.w3.org/2000/svg" width="49.113" height="49.113" xmlns:v="https://vecta.io/nano"><path d="M22.821 37.753c.959.959 2.514.959 3.473 0l9.261-9.261c.634-.618.887-1.529.662-2.385s-.894-1.525-1.75-1.75-1.767.028-2.385.662l-5.069 5.069V3.275c.018-.889-.446-1.718-1.213-2.168s-1.717-.45-2.485 0-1.231 1.279-1.213 2.168v26.813l-5.069-5.069c-.618-.634-1.529-.887-2.385-.662s-1.525.894-1.75 1.75.028 1.767.662 2.385z" fill="#ffd54f"/><path d="M45.84 22.101c-1.356 0-2.456 1.1-2.456 2.456v18.827H5.73V24.557c-.027-1.337-1.118-2.406-2.456-2.406S.846 23.22.819 24.557v19.644c0 2.261 1.832 4.093 4.093 4.093h39.29c2.261 0 4.093-1.832 4.093-4.093V24.557c0-1.356-1.099-2.455-2.455-2.456z" fill="#2096f3"/><path d="M24.556 39.289c-.868.001-1.701-.343-2.315-.958L12.98 29.07a3.27 3.27 0 0 1-.867-3.172c.302-1.136 1.189-2.024 2.325-2.325s2.347.03 3.172.867l3.672 3.671V3.274C21.282 1.466 22.748 0 24.556 0s3.274 1.466 3.274 3.274v24.838l3.671-3.671c1.279-1.279 3.352-1.279 4.63 0s1.279 3.352.001 4.63l-9.261 9.261c-.614.614-1.447.959-2.315.957zm-1.158-2.115a1.64 1.64 0 0 0 2.315 0l9.261-9.261a1.64 1.64 0 0 0 .434-1.586c-.15-.568-.594-1.012-1.163-1.163s-1.174.015-1.586.434l-5.068 5.069a.82.82 0 0 1-1.4-.579V3.274a1.64 1.64 0 0 0-1.637-1.637 1.64 1.64 0 0 0-1.637 1.637v26.814a.82.82 0 0 1-1.4.579L16.453 25.6a1.64 1.64 0 0 0-1.586-.434c-.568.15-1.012.594-1.163 1.163s.015 1.174.434 1.586l9.261 9.261zM44.2 49.113H4.911A4.92 4.92 0 0 1 0 44.201V24.556c0-1.808 1.466-3.274 3.274-3.274s3.274 1.466 3.274 3.274v18.008h36.017V24.556c0-1.808 1.466-3.274 3.274-3.274s3.274 1.466 3.274 3.274v19.645a4.92 4.92 0 0 1-4.911 4.911zM3.274 22.919a1.64 1.64 0 0 0-1.637 1.637v19.645a3.28 3.28 0 0 0 3.274 3.274H44.2a3.28 3.28 0 0 0 3.274-3.274V24.556a1.64 1.64 0 0 0-1.637-1.637 1.64 1.64 0 0 0-1.637 1.637v18.826a.82.82 0 0 1-.819.819H5.73a.82.82 0 0 1-.819-.819V24.556a1.64 1.64 0 0 0-1.637-1.637z" fill="#0d47a0"/></svg>