<svg xmlns="http://www.w3.org/2000/svg" width="26" height="25.276" xmlns:v="https://vecta.io/nano"><ellipse cx="13" cy="12.512" rx="13" ry="12" fill="#f0f0f0"/><path d="M3.016 4.943a12.59 12.59 0 0 0-2.177 4.4h6.575zM25.241 9.34a12.59 12.59 0 0 0-2.177-4.4l-4.4 4.4zM.835 15.935c.43 1.595 1.17 3.09 2.177 4.4l4.4-4.4zM20.733 2.616c-1.31-1.007-2.805-1.747-4.4-2.177v6.575zM5.343 22.661c1.31 1.007 2.805 1.747 4.4 2.177v-6.575zM9.74.435c-1.595.43-3.09 1.17-4.4 2.177l4.4 4.4zm6.595 24.406c1.595-.43 3.09-1.17 4.4-2.177l-4.4-4.4zm2.331-8.906l4.4 4.4a12.59 12.59 0 0 0 2.177-4.4z" fill="#0052b4"/><path d="M25.568 10.99H14.686V.107c-1.095-.143-2.205-.143-3.3 0V10.99H.506c-.143 1.095-.143 2.205 0 3.3h10.883v10.879c1.095.143 2.205.143 3.3 0V14.287h10.879c.143-1.095.143-2.205 0-3.3zm-9.234 4.945h0l5.64 5.64q.389-.389.743-.811l-4.828-4.828h-1.554zm-6.593 0h0l-5.64 5.64q.389.389.811.743L9.74 17.49v-1.554zM9.74 9.342h0L4.1 3.702q-.389.389-.743.811l4.828 4.828h1.554zm6.594 0h0l5.64-5.64q-.389-.389-.811-.743l-4.828 4.828z" fill="#d80027"/></svg>