<svg xmlns="http://www.w3.org/2000/svg" width="26" height="25.276" viewBox="0 0 26 25.276"><defs><style>.a{fill:#f0f0f0;}.b{fill:#0052b4;}.c{fill:#d80027;}</style></defs><g transform="translate(0.169)"><ellipse class="a" cx="13" cy="12" rx="13" ry="12" transform="translate(-0.169 0.512)"/><g transform="translate(0.666 0.435)"><path class="b" d="M11,100.142a12.592,12.592,0,0,0-2.177,4.4h6.575Z" transform="translate(-8.819 -95.634)"/><path class="b" d="M376.58,104.54a12.592,12.592,0,0,0-2.177-4.4l-4.4,4.4Z" transform="translate(-352.174 -95.635)"/><path class="b" d="M8.819,322.784a12.593,12.593,0,0,0,2.177,4.4l4.4-4.4Z" transform="translate(-8.819 -307.284)"/><path class="b" d="M327.18,11a12.593,12.593,0,0,0-4.4-2.177v6.575Z" transform="translate(-307.282 -8.819)"/><path class="b" d="M100.142,374.4a12.593,12.593,0,0,0,4.4,2.177v-6.575Z" transform="translate(-95.634 -352.174)"/><path class="b" d="M104.539,8.819a12.593,12.593,0,0,0-4.4,2.177l4.4,4.4Z" transform="translate(-95.634 -8.819)"/><path class="b" d="M322.783,376.58a12.593,12.593,0,0,0,4.4-2.177l-4.4-4.4Z" transform="translate(-307.283 -352.174)"/><path class="b" d="M370.005,322.784l4.4,4.4a12.591,12.591,0,0,0,2.177-4.4Z" transform="translate(-352.174 -307.284)"/></g><g transform="translate(0.23 0)"><path class="c" d="M25.169,10.99H14.287V.107a12.754,12.754,0,0,0-3.3,0V10.99H.107a12.754,12.754,0,0,0,0,3.3H10.99V25.169a12.754,12.754,0,0,0,3.3,0V14.287H25.169a12.755,12.755,0,0,0,0-3.3Z" transform="translate(0 0)"/><path class="c" d="M322.783,322.783h0l5.64,5.64q.389-.389.743-.811l-4.828-4.828h-1.554Z" transform="translate(-306.848 -306.848)"/><path class="c" d="M80.62,322.784h0l-5.64,5.64q.389.389.811.743l4.828-4.828v-1.554Z" transform="translate(-71.278 -306.849)"/><path class="c" d="M66.315,80.62h0l-5.64-5.64q-.389.389-.743.811l4.828,4.828h1.554Z" transform="translate(-56.974 -71.278)"/><path class="c" d="M322.783,66.317h0l5.64-5.64q-.389-.389-.811-.743l-4.828,4.828Z" transform="translate(-306.848 -56.975)"/></g></g></svg>