<svg xmlns="http://www.w3.org/2000/svg" width="44.202" height="52.387" viewBox="0 0 44.202 52.387"><defs><style>.a{fill:#118e0d;}</style></defs><path class="a" d="M82.94,8.483,62.886.157a2.046,2.046,0,0,0-1.569,0L41.262,8.483A2.046,2.046,0,0,0,40,10.373V20.495A34.27,34.27,0,0,0,61.328,52.236a2.047,2.047,0,0,0,1.547,0A34.27,34.27,0,0,0,84.2,20.495V10.373A2.046,2.046,0,0,0,82.94,8.483ZM80.109,20.495A30.184,30.184,0,0,1,62.1,48.118,30.185,30.185,0,0,1,44.093,20.495V11.739L62.1,4.262l18.008,7.477Zm-20.27,6.9,8.8-8.8a2.046,2.046,0,1,1,2.894,2.894L61.286,31.734a2.046,2.046,0,0,1-2.894,0l-5.719-5.719a2.046,2.046,0,1,1,2.894-2.894Z" transform="translate(-40 0)"/></svg>