<svg xmlns="http://www.w3.org/2000/svg" width="44.202" height="52.387" xmlns:v="https://vecta.io/nano"><path d="M42.94 8.483L22.886.157c-.502-.209-1.067-.209-1.569 0L1.262 8.483C.498 8.8 0 9.546 0 10.373v10.122a34.27 34.27 0 0 0 21.328 31.741c.496.202 1.051.202 1.547 0A34.27 34.27 0 0 0 44.2 20.495V10.373c0-.827-.497-1.572-1.26-1.89zm-2.831 12.012c.001 11.963-7.062 22.798-18.009 27.623C11.154 43.292 4.092 32.457 4.093 20.495v-8.756L22.1 4.262l18.008 7.477zm-20.27 6.9l8.8-8.8c.517-.517 1.27-.719 1.977-.53s1.258.741 1.447 1.447-.013 1.46-.53 1.977L21.286 31.734c-.384.384-.904.6-1.447.6s-1.063-.216-1.447-.6l-5.719-5.719c-.799-.799-.799-2.095 0-2.894s2.095-.799 2.894 0z" fill="#118e0d"/></svg>